<?xml version="1.0" encoding="utf-8"?>
<!-- Generator: Adobe Illustrator 19.1.0, SVG Export Plug-In . SVG Version: 6.00 Build 0)  -->
<svg version="1.1" id="Layer_1" xmlns="http://www.w3.org/2000/svg" xmlns:xlink="http://www.w3.org/1999/xlink" x="0px" y="0px"
	 viewBox="0 0 1164.1 1328.9" style="enable-background:new 0 0 1164.1 1328.9;" xml:space="preserve">
<style type="text/css">
	.st0{fill:none;stroke:#000000;stroke-miterlimit:10;}
</style>
<circle class="st0" cx="863.9" cy="306" r="73"/>
<circle class="st0" cx="863.9" cy="306" r="122"/>
<circle class="st0" cx="863.9" cy="306" r="156.4"/>
<circle class="st0" cx="863.9" cy="306" r="178"/>
<circle class="st0" cx="863.9" cy="306" r="191"/>
<line class="st0" x1="863.9" y1="306" x2="751.6" y2="460.5"/>
<line class="st0" x1="863.9" y1="306" x2="976.2" y2="460.5"/>
<line class="st0" x1="863.9" y1="306" x2="1045.5" y2="247"/>
<line class="st0" x1="863.9" y1="306" x2="863.9" y2="115"/>
<line class="st0" x1="863.9" y1="306" x2="682.2" y2="247"/>
<circle class="st0" cx="292.2" cy="306" r="73"/>
<circle class="st0" cx="292.2" cy="306" r="117"/>
<circle class="st0" cx="292.2" cy="306" r="152"/>
<circle class="st0" cx="292.2" cy="306" r="178"/>
<circle class="st0" cx="292.2" cy="306" r="191"/>
<line class="st0" x1="292.2" y1="306" x2="180" y2="460.5"/>
<line class="st0" x1="292.2" y1="306" x2="404.5" y2="460.5"/>
<line class="st0" x1="292.2" y1="306" x2="473.9" y2="247"/>
<line class="st0" x1="292.2" y1="306" x2="292.2" y2="115"/>
<line class="st0" x1="292.2" y1="306" x2="110.6" y2="247"/>
<circle class="st0" cx="292.2" cy="754" r="12.5"/>
<circle class="st0" cx="292.2" cy="754" r="47"/>
<circle class="st0" cx="292.2" cy="754" r="69"/>
<circle class="st0" cx="292.2" cy="754" r="133"/>
<circle class="st0" cx="292.2" cy="754" r="191"/>
<line class="st0" x1="292.2" y1="754" x2="180" y2="908.5"/>
<line class="st0" x1="292.2" y1="754" x2="404.5" y2="908.5"/>
<line class="st0" x1="292.2" y1="754" x2="473.9" y2="695"/>
<line class="st0" x1="292.2" y1="754" x2="292.2" y2="563"/>
<line class="st0" x1="292.2" y1="754" x2="110.6" y2="695"/>
</svg>
